<svg width="160" height="160" viewBox="0 0 160 160" xmlns="http://www.w3.org/2000/svg">
<g id="svgGroup" stroke-linecap="round" fill-rule="evenodd" font-size="9pt" stroke="#616161" stroke-width="0.25mm" fill="#616161" style="stroke:#616161;stroke-width:0.25mm;fill:#616161">
<path d="M 99.1 113.2 L 99.1 45 L 115.9 45 Q 121.4 45 125.95 45.95 A 23.782 23.782 0 0 1 130.102 47.2 A 18.233 18.233 0 0 1 133.7 49.15 Q 136.9 51.4 138.6 55.1 A 17.026 17.026 0 0 1 139.762 58.701 Q 140.132 60.454 140.247 62.49 A 33.728 33.728 0 0 1 140.3 64.4 A 32.672 32.672 0 0 1 140.007 68.385 Q 139.721 70.431 139.162 72.138 A 15.412 15.412 0 0 1 138.2 74.45 Q 136.2 78.3 133.3 80.65 A 18.757 18.757 0 0 1 126.866 84.021 A 21.427 21.427 0 0 1 126.6 84.1 L 126.6 84.3 Q 127 84.7 127.85 85.75 A 84.821 84.821 0 0 1 128.452 86.502 Q 128.925 87.1 129.3 87.6 L 148.6 113.2 L 138.7 113.2 L 118.9 86.1 L 107.5 86.1 L 107.5 113.2 L 99.1 113.2 Z M 49.2 113.2 L 49.2 45 L 57.6 45 L 57.6 105.2 L 88.6 105.2 L 88.6 113.2 L 49.2 113.2 Z M 23.6 45 L 32 45 L 32 91.9 Q 32 96.417 31.385 99.909 A 28.498 28.498 0 0 1 30.95 101.95 A 12.385 12.385 0 0 1 28.909 106.346 A 11.711 11.711 0 0 1 26.7 108.6 A 22.131 22.131 0 0 1 24.519 110.092 Q 23.379 110.782 22.025 111.449 A 42.767 42.767 0 0 1 20.75 112.05 A 23.574 23.574 0 0 1 17.717 113.158 Q 16.118 113.63 14.224 113.996 A 54.455 54.455 0 0 1 11.1 114.5 L 10 107.4 A 48.915 48.915 0 0 0 12.747 106.856 Q 14.142 106.535 15.311 106.162 A 19.586 19.586 0 0 0 17.45 105.35 A 13.926 13.926 0 0 0 19.316 104.335 Q 20.272 103.71 20.969 102.982 A 7.401 7.401 0 0 0 21.55 102.3 A 8.56 8.56 0 0 0 22.913 99.52 A 11.147 11.147 0 0 0 23.25 97.9 A 35.181 35.181 0 0 0 23.463 95.824 Q 23.6 93.988 23.6 91.8 L 23.6 45 Z M 115.8 52.5 L 107.5 52.5 L 107.5 78.6 L 117.4 78.6 A 25.363 25.363 0 0 0 120.264 78.448 Q 121.701 78.284 122.928 77.945 A 13.251 13.251 0 0 0 124 77.6 A 13.401 13.401 0 0 0 126.416 76.434 A 10.367 10.367 0 0 0 128.4 74.85 Q 130.1 73.1 130.9 70.8 A 16.402 16.402 0 0 0 131.706 67.125 A 19.434 19.434 0 0 0 131.8 65.8 Q 131.8 62.806 131.266 60.6 A 12.373 12.373 0 0 0 130.75 58.95 Q 129.7 56.3 127.65 54.9 A 10.929 10.929 0 0 0 125.043 53.61 A 15.029 15.029 0 0 0 122.6 53 Q 119.6 52.5 115.8 52.5 Z" vector-effect="non-scaling-stroke"/>
</g>
</svg>
